<?xml version="1.0" encoding="UTF-8" standalone="no"?>
<!DOCTYPE svg PUBLIC "-//W3C//DTD SVG 1.1//EN"
 "http://www.w3.org/Graphics/SVG/1.1/DTD/svg11.dtd">
<!-- Generated by graphviz version 2.43.0 (0)
 -->
<!-- Title: G Pages: 1 -->
<svg width="369pt" height="369pt"
 viewBox="0.00 0.00 369.36 368.84" xmlns="http://www.w3.org/2000/svg" xmlns:xlink="http://www.w3.org/1999/xlink">
<g id="graph0" class="graph" transform="scale(1 1) rotate(0) translate(4 364.84)">
<title>G</title><style>.edge>path:hover{stroke-width:8}</style>
<polygon fill="white" stroke="transparent" points="-4,4 -4,-364.84 365.36,-364.84 365.36,4 -4,4"/>
<!-- gnomish_army_knife_app -->
<g id="node1" class="node">
<title>gnomish_army_knife_app</title><style>.edge>path:hover{stroke-width:8}</style>
<ellipse fill="#964040" stroke="black" cx="143.27" cy="-21.21" rx="86.03" ry="21.43"/>
<text text-anchor="middle" x="143.27" y="-24.21" font-family="Helvetica,sans-Serif" font-size="10.00" fill="#ffffff">gnomish_army_knife.</text>
<text text-anchor="middle" x="143.27" y="-13.21" font-family="Helvetica,sans-Serif" font-size="10.00" fill="#ffffff">app</text>
</g>
<!-- gnomish_army_knife_commands -->
<g id="node2" class="node">
<title>gnomish_army_knife_commands</title><style>.edge>path:hover{stroke-width:8}</style>
<ellipse fill="#c24747" stroke="black" cx="86.27" cy="-99.64" rx="86.03" ry="21.43"/>
<text text-anchor="middle" x="86.27" y="-102.64" font-family="Helvetica,sans-Serif" font-size="10.00" fill="#ffffff">gnomish_army_knife.</text>
<text text-anchor="middle" x="86.27" y="-91.64" font-family="Helvetica,sans-Serif" font-size="10.00" fill="#ffffff">commands</text>
</g>
<!-- gnomish_army_knife_commands&#45;&gt;gnomish_army_knife_app -->
<g id="edge1" class="edge">
<title>gnomish_army_knife_commands&#45;&gt;gnomish_army_knife_app</title><style>.edge>path:hover{stroke-width:8}</style>
<path fill="none" stroke="black" d="M101.24,-78.56C107.66,-69.96 115.26,-59.76 122.23,-50.42"/>
<polygon fill="#c24747" stroke="black" points="125.22,-52.27 128.39,-42.16 119.61,-48.08 125.22,-52.27"/>
</g>
<!-- gnomish_army_knife_commands_all -->
<g id="node3" class="node">
<title>gnomish_army_knife_commands_all</title><style>.edge>path:hover{stroke-width:8}</style>
<ellipse fill="#b83d3d" stroke="black" cx="200.27" cy="-185.84" rx="86.03" ry="28.98"/>
<text text-anchor="middle" x="200.27" y="-194.34" font-family="Helvetica,sans-Serif" font-size="10.00" fill="#ffffff">gnomish_army_knife.</text>
<text text-anchor="middle" x="200.27" y="-183.34" font-family="Helvetica,sans-Serif" font-size="10.00" fill="#ffffff">commands.</text>
<text text-anchor="middle" x="200.27" y="-172.34" font-family="Helvetica,sans-Serif" font-size="10.00" fill="#ffffff">all</text>
</g>
<!-- gnomish_army_knife_commands_all&#45;&gt;gnomish_army_knife_app -->
<g id="edge2" class="edge">
<title>gnomish_army_knife_commands_all&#45;&gt;gnomish_army_knife_app</title><style>.edge>path:hover{stroke-width:8}</style>
<path fill="none" stroke="black" d="M204.54,-156.86C206.05,-140.15 206.14,-118.71 200.27,-100.64"/>
</g>
<!-- vcorelib -->
<g id="node4" class="node">
<title>vcorelib</title><style>.edge>path:hover{stroke-width:8}</style>
<ellipse fill="#47c2c2" stroke="black" cx="200.27" cy="-342.84" rx="32.93" ry="18"/>
<text text-anchor="middle" x="200.27" y="-340.34" font-family="Helvetica,sans-Serif" font-size="10.00" fill="#000000">vcorelib</text>
</g>
<!-- vcorelib&#45;&gt;gnomish_army_knife_app -->
<g id="edge3" class="edge">
<title>vcorelib&#45;&gt;gnomish_army_knife_app</title><style>.edge>path:hover{stroke-width:8}</style>
<path fill="none" stroke="black" d="M203.75,-324.62C206.72,-306.02 209.25,-275.84 200.27,-251.84"/>
<path fill="none" stroke="black" d="M200.27,-250.84C181.1,-209.95 130.92,-251.99 105.27,-214.84 90.63,-193.63 91.49,-178.63 105.27,-156.85 131.5,-115.4 215.43,-147.3 200.27,-100.64"/>
<path fill="none" stroke="black" d="M200.27,-98.64C193.86,-80.5 181.53,-63.09 169.97,-49.47"/>
<polygon fill="#47c2c2" stroke="black" points="172.54,-47.1 163.3,-41.92 167.3,-51.73 172.54,-47.1"/>
</g>
<!-- vcorelib&#45;&gt;gnomish_army_knife_commands_all -->
<g id="edge4" class="edge">
<title>vcorelib&#45;&gt;gnomish_army_knife_commands_all</title><style>.edge>path:hover{stroke-width:8}</style>
<path fill="none" stroke="black" d="M200.27,-250.84C197.28,-242.85 196.08,-233.89 195.87,-225.27"/>
<polygon fill="#47c2c2" stroke="black" points="199.38,-225.07 196.05,-215.01 192.38,-224.95 199.38,-225.07"/>
</g>
<!-- vcorelib_args -->
<g id="node5" class="node">
<title>vcorelib_args</title><style>.edge>path:hover{stroke-width:8}</style>
<ellipse fill="#47c2c2" stroke="black" cx="314.27" cy="-342.84" rx="47.19" ry="18"/>
<text text-anchor="middle" x="314.27" y="-340.34" font-family="Helvetica,sans-Serif" font-size="10.00" fill="#000000">vcorelib.args</text>
</g>
<!-- vcorelib_args&#45;&gt;gnomish_army_knife_app -->
<g id="edge5" class="edge">
<title>vcorelib_args&#45;&gt;gnomish_army_knife_app</title><style>.edge>path:hover{stroke-width:8}</style>
<path fill="none" stroke="black" d="M314.27,-250.84C296.17,-212.25 319.96,-191.59 295.27,-156.85 266.84,-116.87 216.6,-146.9 200.27,-100.64"/>
</g>
<!-- vcorelib_args&#45;&gt;gnomish_army_knife_commands_all -->
<g id="edge6" class="edge">
<title>vcorelib_args&#45;&gt;gnomish_army_knife_commands_all</title><style>.edge>path:hover{stroke-width:8}</style>
<path fill="none" stroke="black" d="M317.75,-324.62C320.72,-306.02 323.25,-275.84 314.27,-251.84"/>
<path fill="none" stroke="black" d="M314.27,-250.84C305.9,-232.99 290.08,-219.88 272.84,-210.36"/>
<polygon fill="#47c2c2" stroke="black" points="274.22,-207.13 263.72,-205.7 271.04,-213.37 274.22,-207.13"/>
</g>
</g>
</svg>
